<?xml version="1.0" encoding="UTF-8" standalone="no" ?>
<!DOCTYPE svg PUBLIC "-//W3C//DTD SVG 1.1//EN" "http://www.w3.org/Graphics/SVG/1.1/DTD/svg11.dtd">
<svg xmlns="http://www.w3.org/2000/svg" xmlns:xlink="http://www.w3.org/1999/xlink" version="1.1" width="1080" height="1080" viewBox="0 0 1080 1080" xml:space="preserve">
<desc>Created with Fabric.js 5.2.4</desc>
<defs>
</defs>
<rect x="0" y="0" width="100%" height="100%" fill="transparent"></rect>
<g transform="matrix(1 0 0 1 540 540)" id="352b6e11-562f-462e-8c11-6709938eedd8"  >
<rect style="stroke: none; stroke-width: 1; stroke-dasharray: none; stroke-linecap: butt; stroke-dashoffset: 0; stroke-linejoin: miter; stroke-miterlimit: 4; fill: rgb(255,255,255); fill-rule: nonzero; opacity: 1; visibility: hidden;" vector-effect="non-scaling-stroke"  x="-540" y="-540" rx="0" ry="0" width="1080" height="1080" />
</g>
<g transform="matrix(1 0 0 1 540 540)" id="683294a9-5cbb-4a4f-8f95-4049eb4154a0"  >
</g>
<g transform="matrix(1 0 0 1 540 540)"  >
<g style="" vector-effect="non-scaling-stroke"   >
		<g transform="matrix(1 0 0 1 0 192)"  >
<path style="stroke: none; stroke-width: 1; stroke-dasharray: none; stroke-linecap: butt; stroke-dashoffset: 0; stroke-linejoin: miter; stroke-miterlimit: 4; fill: rgb(0,0,0); fill-rule: nonzero; opacity: 1;" vector-effect="non-scaling-stroke"  transform=" translate(-256, -449.01)" d="M 490.67 385.006 L 320.003 385.006 C 314.328 385.006 308.90999999999997 387.246 304.91999999999996 391.25699999999995 L 289.83699999999993 406.34 L 222.16799999999995 406.34 L 207.08499999999995 391.25699999999995 C 203.09599999999995 387.2459999999999 197.67699999999996 385.006 192.00199999999995 385.006 L 21.337 385.006 C 9.54 385.006 0.004000000000001336 394.563 0.004000000000001336 406.33899999999994 L 0.004000000000001336 470.33899999999994 C 0.004000000000001336 493.86999999999995 19.14 513.006 42.67100000000001 513.006 L 469.33799999999997 513.006 C 492.86899999999997 513.006 512.005 493.86999999999995 512.005 470.33899999999994 L 512.005 406.33899999999994 C 512.003 394.564 502.467 385.006 490.67 385.006 z" stroke-linecap="round" />
</g>
		<g transform="matrix(1 0 0 1 87.54 -83.12)"  >
<path style="stroke: none; stroke-width: 1; stroke-dasharray: none; stroke-linecap: butt; stroke-dashoffset: 0; stroke-linejoin: miter; stroke-miterlimit: 4; fill: rgb(0,0,0); fill-rule: nonzero; opacity: 1;" vector-effect="non-scaling-stroke"  transform=" translate(-343.55, -173.88)" d="M 343.545 198.154 C 352.462 198.154 359.737 190.901 359.737 181.962 L 359.737 165.791 C 359.737 156.852 352.46200000000005 149.599 343.545 149.599 C 334.62800000000004 149.599 327.353 156.85199999999998 327.353 165.791 L 327.353 181.962 C 327.353 190.901 334.627 198.154 343.545 198.154 z" stroke-linecap="round" />
</g>
		<g transform="matrix(1 0 0 1 -0.01 -74.67)"  >
<path style="stroke: none; stroke-width: 1; stroke-dasharray: none; stroke-linecap: butt; stroke-dashoffset: 0; stroke-linejoin: miter; stroke-miterlimit: 4; fill: rgb(0,0,0); fill-rule: nonzero; opacity: 1;" vector-effect="non-scaling-stroke"  transform=" translate(-255.99, -182.33)" d="M 42.659 342.333 L 183.16 342.333 L 198.243 357.41600000000005 C 202.254 361.4270000000001 207.672 363.66700000000003 213.326 363.66700000000003 L 298.659 363.66700000000003 C 304.334 363.66700000000003 309.752 361.427 313.742 357.41600000000005 L 328.846 342.333 L 469.326 342.333 C 481.12300000000005 342.333 490.659 332.797 490.659 321 L 490.659 43.667 C 490.659 20.136 471.523 1 447.993 1 L 63.992999999999995 1 C 40.483 1 21.326 20.136 21.326 43.667 L 21.326 321 C 21.326 332.797 30.883 342.333 42.659 342.333 z M 311.182 165.779 C 311.182 147.944 325.689 133.416 343.545 133.416 C 361.401 133.416 375.908 147.944 375.908 165.779 L 375.908 181.971 C 375.908 199.827 361.401 214.334 343.545 214.334 C 325.689 214.334 311.182 199.827 311.182 181.971 L 311.182 165.779 z M 230.265 141.501 C 230.265 137.042 233.86999999999998 133.416 238.35 133.416 L 286.905 133.416 C 291.364 133.416 294.98999999999995 137.043 294.98999999999995 141.501 C 294.98999999999995 145.981 291.36299999999994 149.608 286.905 149.608 L 246.43599999999998 149.608 L 246.43599999999998 165.779 L 270.71299999999997 165.779 C 275.193 165.779 278.79799999999994 169.406 278.79799999999994 173.886 C 278.79799999999994 178.345 275.1929999999999 181.971 270.71299999999997 181.971 L 246.43599999999998 181.971 L 246.43599999999998 198.163 L 286.905 198.163 C 291.364 198.163 294.98999999999995 201.768 294.98999999999995 206.24800000000002 C 294.98999999999995 210.70700000000002 291.36299999999994 214.33300000000003 286.905 214.33300000000003 L 238.35 214.33300000000003 C 233.87 214.33300000000003 230.265 210.70600000000002 230.265 206.24800000000002 L 230.265 141.501 z M 173.603 133.416 L 186.446 133.416 C 195.982 133.416 204.963 137.128 211.70499999999998 143.869 C 214.862 147.048 214.862 152.168 211.70499999999998 155.325 C 208.54799999999997 158.482 203.428 158.482 200.249 155.325 C 196.57999999999998 151.634 191.652 149.60799999999998 186.446 149.60799999999998 L 173.603 149.60799999999998 C 169.144 149.60799999999998 165.518 153.23499999999999 165.518 157.69299999999998 C 165.518 162.15099999999998 169.145 165.778 173.603 165.778 L 181.71 165.778 L 189.79500000000002 165.778 C 203.192 165.778 214.072 176.679 214.072 190.055 C 214.072 203.452 203.192 214.332 189.79500000000002 214.332 L 176.95200000000003 214.332 C 167.41600000000003 214.332 158.45600000000002 210.62 151.71500000000003 203.879 C 148.53600000000003 200.72199999999998 148.53600000000003 195.602 151.71500000000003 192.423 C 154.87200000000004 189.266 159.99200000000002 189.266 163.15000000000003 192.423 C 166.84100000000004 196.114 171.74700000000004 198.162 176.95300000000003 198.162 L 189.79600000000002 198.162 C 194.25500000000002 198.162 197.88100000000003 194.514 197.88100000000003 190.055 C 197.88100000000003 185.596 194.25400000000002 181.97 189.79600000000002 181.97 L 181.711 181.97 L 173.604 181.97 C 160.228 181.97 149.327 171.09 149.327 157.69299999999998 C 149.326 144.317 160.227 133.416 173.603 133.416 z" stroke-linecap="round" />
</g>
</g>
</g>
<g transform="matrix(0.5 0.28 -0.28 0.5 737.83 242.67)"  >
<g style="" vector-effect="non-scaling-stroke"   >
		<g transform="matrix(1 0 0 1 1.56 -5.32)"  >
<polygon style="stroke: none; stroke-width: 1; stroke-dasharray: none; stroke-linecap: butt; stroke-dashoffset: 0; stroke-linejoin: miter; stroke-miterlimit: 4; fill: rgb(236,240,241); fill-rule: nonzero; opacity: 1;" vector-effect="non-scaling-stroke"  points="203.79,13 89.87,105.39 0.01,-29.89 -89.82,105.35 -203.7,13.52 -214.2,-48.97 -99.27,44.03 -0.01,-105.39 99.27,44.03 214.2,-48.97 " />
</g>
		<g transform="matrix(1 0 0 1 1.61 79.55)"  >
<polygon style="stroke: none; stroke-width: 1; stroke-dasharray: none; stroke-linecap: butt; stroke-dashoffset: 0; stroke-linejoin: miter; stroke-miterlimit: 4; fill: rgb(248,198,96); fill-rule: nonzero; opacity: 1;" vector-effect="non-scaling-stroke"  points="203.75,-71.91 172.37,114.75 -172.45,114.75 -203.74,-71.4 -89.86,20.5 -0.03,-114.75 89.83,20.56 " />
</g>
		<g transform="matrix(1 0 0 1 1.57 -152.5)"  >
<circle style="stroke: none; stroke-width: 1; stroke-dasharray: none; stroke-linecap: butt; stroke-dashoffset: 0; stroke-linejoin: miter; stroke-miterlimit: 4; fill: rgb(248,198,96); fill-rule: nonzero; opacity: 1;" vector-effect="non-scaling-stroke"  cx="0" cy="0" r="41.796" />
</g>
		<g transform="matrix(1 0 0 1 211.59 -71)"  >
<circle style="stroke: none; stroke-width: 1; stroke-dasharray: none; stroke-linecap: butt; stroke-dashoffset: 0; stroke-linejoin: miter; stroke-miterlimit: 4; fill: rgb(248,198,96); fill-rule: nonzero; opacity: 1;" vector-effect="non-scaling-stroke"  cx="0" cy="0" r="33.959" />
</g>
		<g transform="matrix(1 0 0 1 -211.59 -71)"  >
<circle style="stroke: none; stroke-width: 1; stroke-dasharray: none; stroke-linecap: butt; stroke-dashoffset: 0; stroke-linejoin: miter; stroke-miterlimit: 4; fill: rgb(248,198,96); fill-rule: nonzero; opacity: 1;" vector-effect="non-scaling-stroke"  cx="0" cy="0" r="33.959" />
</g>
		<g transform="matrix(1 0 0 1 2.13 104.33)"  >
<polygon style="stroke: none; stroke-width: 1; stroke-dasharray: none; stroke-linecap: butt; stroke-dashoffset: 0; stroke-linejoin: miter; stroke-miterlimit: 4; fill: rgb(223,95,78); fill-rule: nonzero; opacity: 1;" vector-effect="non-scaling-stroke"  points="0,53.3 -37.63,0 0,-53.3 37.63,0 " />
</g>
		<g transform="matrix(1 0 0 1 0 0)"  >
<path style="stroke: none; stroke-width: 1; stroke-dasharray: none; stroke-linecap: butt; stroke-dashoffset: 0; stroke-linejoin: miter; stroke-miterlimit: 4; fill: rgb(35,31,32); fill-rule: nonzero; opacity: 1;" vector-effect="non-scaling-stroke"  transform=" translate(-256, -256)" d="M 512 185 C 512 160.513 492.079 140.59199999999998 467.592 140.59199999999998 C 443.10499999999996 140.59199999999998 423.184 160.513 423.184 185 C 423.184 197.43 428.324 208.676 436.58200000000005 216.745 L 359.1840000000001 279.367 L 275.0440000000001 152.726 C 295.2830000000001 145.52 309.8130000000001 126.178 309.8130000000001 103.49799999999999 C 309.8130000000001 74.69 286.3760000000001 51.25299999999999 257.5680000000001 51.25299999999999 C 228.7600000000001 51.25299999999999 205.3230000000001 74.69 205.3230000000001 103.49799999999999 C 205.3230000000001 126.17299999999999 219.8470000000001 145.511 240.07700000000008 152.721 L 155.95 279.366 L 76.80299999999998 215.32899999999998 C 84.24599999999998 207.385 88.81599999999999 196.719 88.81599999999999 184.99999999999997 C 88.81599999999999 160.51299999999998 68.89499999999998 140.59199999999998 44.40799999999999 140.59199999999998 C 19.920999999999992 140.59199999999998 0 160.513 0 185 C 0 207.076 16.194 225.434 37.326 228.837 L 74.856 451.977 C 75.702 457.008 80.059 460.74699999999996 85.16 460.74699999999996 L 429.976 460.74699999999996 C 435.078 460.74699999999996 439.434 457.00899999999996 440.28 451.977 L 477.91799999999995 228.20999999999998 C 497.439 223.542 512 205.932 512 185 z M 226.22 103.498 C 226.22 86.21300000000001 240.282 72.15100000000001 257.567 72.15100000000001 C 274.852 72.15100000000001 288.914 86.21300000000001 288.914 103.49800000000002 C 288.914 120.78300000000003 274.852 134.84500000000003 257.567 134.84500000000003 C 240.28200000000004 134.84500000000003 226.22 120.783 226.22 103.498 z M 159.885 305.039 C 162.79299999999998 304.59299999999996 165.378 302.943 167.005 300.49199999999996 L 257.558 164.17299999999997 L 348.13 300.49199999999996 C 349.758 302.94199999999995 352.343 304.592 355.25 305.03799999999995 C 358.157 305.48099999999994 361.118 304.68299999999994 363.405 302.83199999999994 L 456.048 227.87599999999992 C 456.281 227.9389999999999 456.513 228.00299999999993 456.747 228.06199999999993 L 451.725 257.9409999999999 L 349.781 340.7129999999999 L 266.28200000000004 215.0049999999999 C 264.345 212.08999999999992 261.07800000000003 210.3369999999999 257.57800000000003 210.3369999999999 C 254.07800000000003 210.3369999999999 250.81000000000003 212.0889999999999 248.87400000000002 215.0049999999999 L 165.389 340.68799999999993 L 63.491 258.437 L 58.24 227.191 L 151.729 302.832 C 154.016 304.684 156.974 305.482 159.885 305.039 z M 20.898 185 C 20.898 172.036 31.444 161.49 44.408 161.49 C 57.372 161.49 67.918 172.036 67.918 185 C 67.918 197.964 57.37200000000001 208.51 44.408 208.51 C 31.443999999999996 208.51 20.898 197.964 20.898 185 z M 421.137 439.849 L 93.998 439.849 L 68.738 289.582 L 161.185 364.179 C 163.472 366.02599999999995 166.43200000000002 366.80899999999997 169.337 366.363 C 172.242 365.916 174.825 364.259 176.452 361.81 L 257.578 239.675 L 338.73499999999996 361.856 C 340.36499999999995 364.30899999999997 342.953 365.959 345.864 366.403 C 348.78 366.848 351.739 366.041 354.025 364.185 L 446.462 289.18600000000004 L 421.137 439.849 z M 467.592 208.51 C 454.628 208.51 444.082 197.964 444.082 185 C 444.082 172.036 454.628 161.49 467.592 161.49 C 480.556 161.49 491.102 172.036 491.102 185 C 491.102 197.964 480.556 208.51 467.592 208.51 z" stroke-linecap="round" />
</g>
		<g transform="matrix(1 0 0 1 1.61 104.33)"  >
<path style="stroke: none; stroke-width: 1; stroke-dasharray: none; stroke-linecap: butt; stroke-dashoffset: 0; stroke-linejoin: miter; stroke-miterlimit: 4; fill: rgb(35,31,32); fill-rule: nonzero; opacity: 1;" vector-effect="non-scaling-stroke"  transform=" translate(-257.61, -360.33)" d="M 266.145 301.002 C 264.18699999999995 298.229 261.00399999999996 296.579 257.609 296.579 C 254.21399999999997 296.579 251.03099999999998 298.229 249.07299999999998 301.002 L 211.444 354.30400000000003 C 208.893 357.91700000000003 208.893 362.744 211.444 366.35600000000005 L 249.07299999999998 419.6580000000001 C 251.03099999999998 422.4310000000001 254.21399999999997 424.0810000000001 257.609 424.0810000000001 C 261.00399999999996 424.0810000000001 264.18699999999995 422.4310000000001 266.145 419.6580000000001 L 303.774 366.35600000000005 C 306.325 362.74300000000005 306.325 357.91600000000005 303.774 354.30400000000003 L 266.145 301.002 z M 257.609 395.515 L 232.771 360.33 L 257.609 325.145 L 282.447 360.33 L 257.609 395.515 z" stroke-linecap="round" />
</g>
</g>
</g>
<g transform="matrix(2.8 0 0 2.8 321.33 281.22)"  >
<g style="" vector-effect="non-scaling-stroke"   >
		<g transform="matrix(1 0 0 1 0 0)"  >
<rect style="stroke: none; stroke-width: 1; stroke-dasharray: none; stroke-linecap: butt; stroke-dashoffset: 0; stroke-linejoin: miter; stroke-miterlimit: 4; fill: rgb(255,255,255); fill-opacity: 0.01; fill-rule: nonzero; opacity: 1;" vector-effect="non-scaling-stroke"  x="-24" y="-24" rx="0" ry="0" width="48" height="48" />
</g>
		<g transform="matrix(1 0 0 1 0 0)"  >
<path style="stroke: rgb(0,0,0); stroke-width: 4; stroke-dasharray: none; stroke-linecap: round; stroke-dashoffset: 0; stroke-linejoin: round; stroke-miterlimit: 4; fill: rgb(47,136,255); fill-rule: nonzero; opacity: 1;" vector-effect="non-scaling-stroke"  transform=" translate(-24, -24)" d="M 24 4 L 29.2533 7.83204 L 35.7557 7.81966 L 37.7533 14.0077 L 43.0211 17.8197 L 41 24 L 43.0211 30.1803 L 37.7533 33.9923 L 35.7557 40.1803 L 29.2533 40.168 L 24 44 L 18.7467 40.168 L 12.2443 40.1803 L 10.2467 33.9923 L 4.97887 30.1803 L 7 24 L 4.97887 17.8197 L 10.2467 14.0077 L 12.2443 7.81966 L 18.7467 7.83204 L 24 4 Z" stroke-linecap="round" />
</g>
		<g transform="matrix(1 0 0 1 0.5 0)"  >
<path style="stroke: rgb(255,255,255); stroke-width: 4; stroke-dasharray: none; stroke-linecap: round; stroke-dashoffset: 0; stroke-linejoin: round; stroke-miterlimit: 4; fill: none; fill-rule: nonzero; opacity: 1;" vector-effect="non-scaling-stroke"  transform=" translate(-24.5, -24)" d="M 17 24 L 22 29 L 32 19" stroke-linecap="round" />
</g>
</g>
</g>
<g transform="matrix(1.71 0 0 1.71 540.08 580.53)"  >
<g style="" vector-effect="non-scaling-stroke"   >
		<g transform="matrix(1 0 0 1 -22 19.5)"  >
<rect style="stroke: none; stroke-width: 1; stroke-dasharray: none; stroke-linecap: butt; stroke-dashoffset: 0; stroke-linejoin: miter; stroke-miterlimit: 4; fill: rgb(126,208,158); fill-rule: nonzero; opacity: 1;" vector-effect="non-scaling-stroke"  x="-5" y="-7" rx="0" ry="0" width="10" height="14" />
</g>
		<g transform="matrix(1 0 0 1 -7 15)"  >
<rect style="stroke: none; stroke-width: 1; stroke-dasharray: none; stroke-linecap: butt; stroke-dashoffset: 0; stroke-linejoin: miter; stroke-miterlimit: 4; fill: rgb(113,194,133); fill-rule: nonzero; opacity: 1;" vector-effect="non-scaling-stroke"  x="-5" y="-11.5" rx="0" ry="0" width="10" height="23" />
</g>
		<g transform="matrix(1 0 0 1 8 11)"  >
<rect style="stroke: none; stroke-width: 1; stroke-dasharray: none; stroke-linecap: butt; stroke-dashoffset: 0; stroke-linejoin: miter; stroke-miterlimit: 4; fill: rgb(79,186,111); fill-rule: nonzero; opacity: 1;" vector-effect="non-scaling-stroke"  x="-5" y="-15.5" rx="0" ry="0" width="10" height="31" />
</g>
		<g transform="matrix(1 0 0 1 23 7)"  >
<rect style="stroke: none; stroke-width: 1; stroke-dasharray: none; stroke-linecap: butt; stroke-dashoffset: 0; stroke-linejoin: miter; stroke-miterlimit: 4; fill: rgb(36,174,95); fill-rule: nonzero; opacity: 1;" vector-effect="non-scaling-stroke"  x="-5" y="-19.5" rx="0" ry="0" width="10" height="39" />
</g>
		<g transform="matrix(1 0 0 1 0 26.5)"  >
<path style="stroke: none; stroke-width: 1; stroke-dasharray: none; stroke-linecap: butt; stroke-dashoffset: 0; stroke-linejoin: miter; stroke-miterlimit: 4; fill: rgb(85,96,128); fill-rule: nonzero; opacity: 1;" vector-effect="non-scaling-stroke"  transform=" translate(-30, -56.5)" d="M 59 57.5 L 1 57.5 C 0.44799999999999995 57.5 0 57.053 0 56.5 C 0 55.947 0.448 55.5 1 55.5 L 59 55.5 C 59.552 55.5 60 55.947 60 56.5 C 60 57.053 59.552 57.5 59 57.5 z" stroke-linecap="round" />
</g>
		<g transform="matrix(1 0 0 1 -2.48 -14.42)"  >
<path style="stroke: none; stroke-width: 1; stroke-dasharray: none; stroke-linecap: butt; stroke-dashoffset: 0; stroke-linejoin: miter; stroke-miterlimit: 4; fill: rgb(189,195,199); fill-rule: nonzero; opacity: 1;" vector-effect="non-scaling-stroke"  transform=" translate(-27.51, -15.58)" d="M 8.03 27.83 C 7.683999999999999 27.83 7.347999999999999 27.651 7.162999999999999 27.33 C 6.887 26.851 7.050999999999999 26.24 7.528999999999999 25.964 L 46.5 3.464 C 46.978 3.187 47.589 3.352 47.866 3.83 C 48.142 4.309 47.978 4.92 47.5 5.196 L 8.529000000000003 27.695999999999998 C 8.372 27.787 8.199 27.83 8.03 27.83 z" stroke-linecap="round" />
</g>
		<g transform="matrix(1 0 0 1 12.72 -26.08)"  >
<path style="stroke: none; stroke-width: 1; stroke-dasharray: none; stroke-linecap: butt; stroke-dashoffset: 0; stroke-linejoin: miter; stroke-miterlimit: 4; fill: rgb(189,195,199); fill-rule: nonzero; opacity: 1;" vector-effect="non-scaling-stroke"  transform=" translate(-42.72, -3.91)" d="M 47.001 5.33 C 46.969 5.33 46.937 5.328 46.903 5.325 L 38.341 4.495 C 37.792 4.442 37.389 3.9530000000000003 37.443 3.403 C 37.495999999999995 2.854 37.98 2.449 38.535 2.505 L 47.096999999999994 3.335 C 47.645999999999994 3.388 48.04899999999999 3.877 47.995 4.427 C 47.945 4.943 47.51 5.33 47.001 5.33 z" stroke-linecap="round" />
</g>
		<g transform="matrix(1 0 0 1 15.22 -21.75)"  >
<path style="stroke: none; stroke-width: 1; stroke-dasharray: none; stroke-linecap: butt; stroke-dashoffset: 0; stroke-linejoin: miter; stroke-miterlimit: 4; fill: rgb(189,195,199); fill-rule: nonzero; opacity: 1;" vector-effect="non-scaling-stroke"  transform=" translate(-45.22, -8.24)" d="M 43.437 13.16 C 43.297999999999995 13.16 43.157999999999994 13.132 43.022999999999996 13.07 C 42.519999999999996 12.841000000000001 42.297999999999995 12.249 42.526999999999994 11.746 L 46.08899999999999 3.9160000000000004 C 46.31799999999999 3.4130000000000003 46.910999999999994 3.1890000000000005 47.41299999999999 3.4200000000000004 C 47.91599999999999 3.6490000000000005 48.13799999999999 4.2410000000000005 47.90899999999999 4.744000000000001 L 44.346999999999994 12.574000000000002 C 44.181 12.942 43.817 13.16 43.437 13.16 z" stroke-linecap="round" />
</g>
</g>
</g>
<g transform="matrix(4.56 0 0 1 540 732.86)" id="7ef638f5-db9d-4b63-bb91-5c51c361af04"  >
<path style="stroke: rgb(0,0,0); stroke-width: 0; stroke-dasharray: none; stroke-linecap: butt; stroke-dashoffset: 0; stroke-linejoin: miter; stroke-miterlimit: 4; fill: rgb(255,255,255); fill-rule: nonzero; opacity: 0.89;" vector-effect="non-scaling-stroke"  transform=" translate(-50, -50)" d="M 94.75 50 C 94.75 56.213 89.514 61.25 83.054 61.25 L 16.946 61.25 C 10.486 61.25 5.25 56.213 5.25 50 L 5.25 50 C 5.25 43.787 10.486 38.75 16.945999999999998 38.75 L 83.053 38.75 C 89.514 38.75 94.75 43.787 94.75 50 L 94.75 50 z" stroke-linecap="round" />
</g>
</svg>